<svg width="600" height="600" viewBox="0 0 600 600" fill="none" xmlns="http://www.w3.org/2000/svg">
<path fill-rule="evenodd" clip-rule="evenodd" d="M300 600C303.17 600 306.328 599.951 309.474 599.853V425.966C306.346 426.198 303.187 426.316 300 426.316C296.813 426.316 293.654 426.198 290.526 425.966V599.853C293.672 599.951 296.83 600 300 600ZM276.544 424.142C270.267 422.963 264.153 421.32 258.239 419.249L213.222 587.258C219.246 589.075 225.349 590.708 231.527 592.15L276.544 424.142ZM245.21 413.847C239.49 411.089 234.01 407.913 228.81 404.358L141.85 554.977C147.206 558.306 152.675 561.472 158.25 564.466L245.21 413.847ZM217.63 395.768C212.838 391.642 208.358 387.162 204.232 382.37L81.2742 505.328C85.5988 509.933 90.0671 514.401 94.672 518.726L217.63 395.768ZM195.642 371.191C192.087 365.99 188.911 360.51 186.153 354.79L35.5344 441.75C38.5287 447.325 41.694 452.794 45.0234 458.15L195.642 371.191ZM180.751 341.761C178.68 335.848 177.037 329.734 175.858 323.456L7.8498 368.474C9.29194 374.651 10.9249 380.755 12.7422 386.778L180.751 341.761ZM174.034 309.474C173.802 306.346 173.684 303.187 173.684 300C173.684 296.813 173.802 293.654 174.034 290.526H0.146749C0.0491614 293.672 0 296.83 0 300C0 303.17 0.0491614 306.328 0.146749 309.474H174.034ZM175.858 276.544C177.037 270.266 178.68 264.152 180.751 258.239L12.7422 213.222C10.9249 219.246 9.29193 225.349 7.84979 231.526L175.858 276.544ZM186.153 245.21C188.911 239.49 192.087 234.01 195.642 228.809L45.0233 141.85C41.6939 147.206 38.5286 152.675 35.5344 158.25L186.153 245.21ZM204.232 217.63C208.358 212.838 212.838 208.358 217.63 204.232L94.672 81.2742C90.0671 85.5987 85.5988 90.0671 81.2742 94.672L204.232 217.63ZM228.81 195.642C234.01 192.087 239.49 188.911 245.21 186.153L158.25 35.5343C152.675 38.5285 147.206 41.6938 141.85 45.0232L228.81 195.642ZM258.239 180.751C264.152 178.68 270.266 177.037 276.544 175.858L231.526 7.84983C225.349 9.29196 219.245 10.925 213.222 12.7423L258.239 180.751ZM290.526 174.034V0.146749C293.672 0.0491614 296.83 0 300 0C303.17 0 306.328 0.0491614 309.474 0.146749V174.034C306.346 173.802 303.187 173.684 300 173.684C296.813 173.684 293.654 173.802 290.526 174.034ZM323.456 175.858C329.734 177.037 335.848 178.68 341.761 180.751L386.779 12.7423C380.755 10.925 374.651 9.29198 368.474 7.84983L323.456 175.858ZM354.79 186.153C360.51 188.911 365.99 192.087 371.191 195.642L458.15 45.0234C452.794 41.694 447.325 38.5287 441.75 35.5344L354.79 186.153ZM382.37 204.232C387.162 208.358 391.642 212.838 395.768 217.63L518.726 94.672C514.401 90.0671 509.933 85.5988 505.328 81.2742L382.37 204.232ZM404.358 228.81C407.913 234.01 411.089 239.49 413.847 245.21L564.466 158.25C561.471 152.675 558.306 147.206 554.977 141.85L404.358 228.81ZM419.249 258.239C421.32 264.152 422.963 270.266 424.142 276.544L592.15 231.526C590.708 225.349 589.075 219.246 587.258 213.222L419.249 258.239ZM425.966 290.526C426.198 293.654 426.316 296.813 426.316 300C426.316 303.187 426.198 306.346 425.966 309.474H599.853C599.951 306.328 600 303.17 600 300C600 296.83 599.951 293.672 599.853 290.526H425.966ZM424.142 323.456C422.963 329.734 421.32 335.848 419.249 341.761L587.258 386.778C589.075 380.755 590.708 374.651 592.15 368.474L424.142 323.456ZM413.847 354.79C411.089 360.51 407.913 365.99 404.358 371.191L554.977 458.15C558.306 452.794 561.471 447.325 564.466 441.75L413.847 354.79ZM395.768 382.37C391.642 387.162 387.162 391.642 382.37 395.768L505.328 518.726C509.933 514.401 514.401 509.933 518.726 505.328L395.768 382.37ZM371.191 404.358C365.99 407.913 360.51 411.089 354.79 413.847L441.75 564.466C447.325 561.471 452.794 558.306 458.15 554.977L371.191 404.358ZM341.761 419.249C335.847 421.32 329.733 422.963 323.456 424.142L368.473 592.15C374.651 590.708 380.754 589.075 386.778 587.258L341.761 419.249Z" fill="white"/>
</svg>
